<?xml version="1.0" encoding="UTF-8"?>
<svg version="1.1" viewBox="0 0 2048 369" width="5232" height="945" xmlns="http://www.w3.org/2000/svg">
<path transform="translate(997)" d="m0 0h12l20 2 21 5 19 8 14 8 11 9 10 9 10 12 11 18 6 14 5 16 3 17 1 13v18l-2 18-4 17-6 16-8 16-9 12-9 10-8 8-14 10-14 8-19 7-17 4-17 2h-21l-22-3-20-6-14-6-16-10-13-11-7-7-10-13-9-15-8-20-5-21-2-23 1-22 3-17 5-17 8-18 9-14 8-10 14-14 14-10 17-9 18-6 20-4zm-5 60-13 3-14 7-13 11-8 11-6 13-4 13-2 17 1 19 4 17 8 16 6 8 9 9 14 8 12 4 5 1h24l15-4 12-6 12-11 7-9 7-14 4-14 1-6v-28l-3-15-6-15-9-13-7-7-14-9-11-4-10-2z" fill="#5865F1"/>
<path transform="translate(1915,8)" d="m0 0h27l19 3 17 5 15 6 15 8 14 10 10 9 2 3-26 32-5 6-8-6-14-9-17-8-15-4-7-1h-26l-13 3-12 6-8 7-5 9-2 9v9l3 11 6 8 8 7 21 11 46 19 23 10 19 10 13 10 11 11 9 14 6 14 3 14 1 11v12l-2 14-5 16-8 15-7 9-9 10-13 10-19 10-18 6-14 3-18 2h-20l-18-2-19-4-18-6-23-11-15-10-14-11-6-7 12-14 22-26 4 2 13 10 18 11 16 7 17 5 13 2h19l17-3 12-5 10-7 6-9 3-8 1-5v-12l-3-10-5-8-7-7-14-8-22-10-30-13-27-12-15-8-12-9-10-9-8-10-8-14-5-15-2-12v-20l3-15 6-15 9-14 11-12 11-9 16-9 15-6 16-4z" fill="#FFDB5C"/>
<path transform="translate(3,8)" d="m0 0h121l20 3 15 4 17 7 16 10 13 12 8 9 9 14 7 16 4 13 3 16 1 10v29l-3 20-4 15-6 15-6 12-8 11-9 10-10 9-14 9-16 8-16 5-16 3-9 1h-117zm63 56v149h48l17-4 13-7 9-8 7-10 6-13 4-16 1-9v-16l-2-16-6-18-7-11-9-9-10-6-11-4-11-2z" fill="#5865F1"/>
<path transform="translate(1435,8)" d="m0 0h120l21 3 15 4 17 7 16 10 12 11 7 7 10 15 7 15 5 16 3 15 1 9v33l-3 20-7 21-3 5-18 3-12 5-9 7-7 7-8 16-2 8-1 11-11 5-17 5-20 3h-116zm63 56v149h47l14-3 12-5 11-8 9-11 7-14 4-16 1-8v-21l-3-18-6-15-7-10-9-9-13-7-11-3-7-1z" fill="#5865F1"/>
<path transform="translate(1183,8)" d="m0 0h129l18 3 15 5 12 6 10 8 9 9 8 13 5 14 2 12v22l-3 14-5 12-7 11-10 10-12 8-16 6-16 4 10 14 12 16 42 57 12 16v1h-76l-11-16-12-17-14-20-12-17-14-20-12-17-1 107h-63zm63 53v69h47l13-4 6-4 8-9 3-8 1-6v-8l-2-10-4-8-9-8-13-4z" fill="#5865F1"/>
<path transform="translate(475)" d="m0 0h26l21 3 21 6 18 8 11 6v57l-5-2-15-9-19-8-17-4-6-1h-29l-10 3-8 5-4 8v12l4 7 7 6 16 8 32 10 19 8 15 8 10 8 9 9 6 10 5 12 2 9 1 18-2 16-5 16-7 12-11 12-10 8-15 8-21 6-15 2h-30l-20-3-19-5-15-6-16-8-8-5v-58l5 2 9 6 15 8 22 8 18 4 9 1h15l12-2 10-5 5-6 2-5 1-9-2-9-4-6-10-7-17-7-33-11-21-10-14-10-10-11-8-16-3-10-1-7v-20l3-15 5-12 7-11 8-9 11-8 16-8 19-5z" fill="#5865F1"/>
<path transform="translate(746)" d="m0 0h14l21 2 18 4 18 6 16 8 3 2v58l-4-1-16-9-15-6-16-4-8-1h-23l-17 3-14 5-11 6-10 8-8 9-7 12-6 18-1 6v24l4 17 8 16 7 9 8 8 13 8 15 6 14 3 10 1h15l19-3 24-8 15-8 5-2v57l-10 6-19 8-18 5-17 3-12 1h-20l-24-3-21-6-19-9-15-10-12-11-7-7-10-14-8-15-6-16-5-22-1-9v-31l3-20 6-20 10-21 10-14 11-12 10-9 14-9 16-8 18-6 21-4z" fill="#5865F1"/>
<path transform="translate(1708,8)" d="m0 0h59v250l-3 19-5 17-8 17-9 13-11 12-13 10-16 8-16 5-11 2-14 1h-17l-17-3-15-5-17-9-10-8-10-9-9-12-8-16v-3l23-5 15-5 9-4h3l7 9 10 8 11 5 9 2h16l12-3 13-7 10-10 7-12 3-10 1-7z" fill="#5865F1"/>
<path transform="translate(281,8)" d="m0 0h63v261h-63z" fill="#5865F2"/>
<path transform="translate(2039,238)" d="m0 0h4l2 17v12l-2 14-5 16-8 15-7 9-9 10-13 10-19 10-18 6-14 3-18 2h-20l-18-2-19-4-18-6-23-11-15-10-14-11-6-7 12-14 22-26 4 2 13 10 18 11 16 7 17 5 13 2h19l17-3 12-5 10-7 6-9 3-8 1-5v-12l-2-9 9-2 33-6z" fill="#B75CFE"/>
<path transform="translate(1915,8)" d="m0 0h27l19 3 17 5 15 6 15 8 14 10 10 9 2 3-26 32-5 6-8-6-14-9-17-8-15-4-7-1h-26l-13 3-12 6-8 7-5 9-2 9v15l-28-3-34-1v-13l3-15 6-15 9-14 11-12 11-9 16-9 15-6 16-4z" fill="#FE5C5C"/>
<path transform="translate(1708,8)" d="m0 0h59v164l-3 1-49 5h-7z" fill="#FF5C5C"/>
<path transform="translate(1605,283)" d="m0 0h3l7 9 10 8 11 5 24 5 9 1h33l37-4 14-1-5 10-11 14-7 7-14 10-14 7-16 5-11 2-14 1h-17l-17-3-15-5-17-9-10-8-10-9-9-12-8-16v-3l23-5 15-5z" fill="#B75CFE"/>
<path transform="translate(2e3 179)" d="m0 0 8 4 11 9 10 10 9 14 6 14 1 8-25 6-28 5-9 1-6-9-7-7-14-8-22-10-30-13-27-12-15-8-3-3 13 2 28 5 18 2h29l23-3 23-5z" fill="#5CFF9D"/>
<path transform="translate(1835,46)" d="m0 0h25l28 3 44 6 36 3 20 1 39 1-6 8-13 16-5 6-8-6-14-9-17-8-15-4-7-1h-26l-13 3-12 6-8 7-5 9-2 9v15l-28-3-34-1v-13l3-15 6-15 9-14z" fill="#F79454"/>
<path transform="translate(2039,238)" d="m0 0h4l2 17v12l-2 14-3 11-24 7-33 7-26 4-20 2h-33l-37-4-32-4-27-2 2-4 12-14 11-13 4 2 13 10 18 11 16 7 17 5 13 2h19l17-3 12-5 10-7 6-9 3-8 1-5v-12l-2-9 9-2 33-6z" fill="#5865F1"/>
<path transform="translate(1764,172)" d="m0 0h3v66l-31 6-26 6h-2v-72l45-5z" fill="#5CFF9D"/>
<path transform="translate(1651,219)" d="m0 0 11 1 9 4 8 6 6 9 3 10v10l-4 12-9 10-8 5-7 2h-13l-11-4-10-9-5-8-2-7v-12l4-11 6-8 8-6 8-3z" fill="#5865F1"/>
<path transform="translate(1763,113)" d="m0 0h4v59l-3 1-49 5h-7v-55l44-8z" fill="#FFDB5C"/>
<path transform="translate(1765,63)" d="m0 0h2v50l-47 9-12 1v-37l27-10z" fill="#F79454"/>
</svg>
